<svg xmlns="http://www.w3.org/2000/svg" viewBox="0 0 900 600" width="900" height="600">
  <defs>
    <radialGradient id="lantern1" cx="50%" cy="50%" r="50%">
      <stop offset="0%" stop-color="#ffcc66" stop-opacity="1"/>
      <stop offset="40%" stop-color="#ff9900" stop-opacity="0.8"/>
      <stop offset="100%" stop-color="#ff6600" stop-opacity="0"/>
    </radialGradient>
    <radialGradient id="lantern2" cx="50%" cy="50%" r="50%">
      <stop offset="0%" stop-color="#ffdd88" stop-opacity="1"/>
      <stop offset="35%" stop-color="#ffaa33" stop-opacity="0.7"/>
      <stop offset="100%" stop-color="#ff7700" stop-opacity="0"/>
    </radialGradient>
    <radialGradient id="glow1" cx="50%" cy="50%" r="50%">
      <stop offset="0%" stop-color="#ffcc44" stop-opacity="0.9"/>
      <stop offset="60%" stop-color="#ff8800" stop-opacity="0.3"/>
      <stop offset="100%" stop-color="#ff4400" stop-opacity="0"/>
    </radialGradient>
    <linearGradient id="sky" x1="0" y1="0" x2="0" y2="1">
      <stop offset="0%" stop-color="#0a0d14"/>
      <stop offset="40%" stop-color="#0f1520"/>
      <stop offset="100%" stop-color="#141a22"/>
    </linearGradient>
    <linearGradient id="wall" x1="0" y1="0" x2="1" y2="0">
      <stop offset="0%" stop-color="#1a1a1a"/>
      <stop offset="50%" stop-color="#222222"/>
      <stop offset="100%" stop-color="#1a1a1a"/>
    </linearGradient>
    <linearGradient id="deck" x1="0" y1="0" x2="0" y2="1">
      <stop offset="0%" stop-color="#1c1c1c"/>
      <stop offset="100%" stop-color="#141414"/>
    </linearGradient>
    <linearGradient id="gravel" x1="0" y1="0" x2="0" y2="1">
      <stop offset="0%" stop-color="#4a4540"/>
      <stop offset="100%" stop-color="#2a2520"/>
    </linearGradient>
    <filter id="blur-soft">
      <feGaussianBlur stdDeviation="8"/>
    </filter>
    <filter id="blur-glow">
      <feGaussianBlur stdDeviation="15"/>
    </filter>
    <filter id="blur-sm">
      <feGaussianBlur stdDeviation="3"/>
    </filter>
    <filter id="stone-texture">
      <feTurbulence type="fractalNoise" baseFrequency="0.9" numOctaves="4" result="noise"/>
      <feColorMatrix type="matrix" values="0 0 0 0 0.15  0 0 0 0 0.15  0 0 0 0 0.15  0 0 0 0.5 0" in="noise" result="colored"/>
      <feBlend in="SourceGraphic" in2="colored" mode="multiply"/>
    </filter>
    <clipPath id="scene"><rect width="900" height="600"/></clipPath>
  </defs>

  <g clip-path="url(#scene)">
    <!-- Sky / background -->
    <rect width="900" height="600" fill="url(#sky)"/>

    <!-- Distant trees silhouette -->
    <path d="M0 200 Q50 180 80 200 Q100 160 130 195 Q160 170 200 200 Q230 155 270 198 Q300 165 340 200 Q370 160 410 198 Q440 170 480 200 Q510 155 550 200 Q580 165 620 200 Q650 155 690 198 Q720 170 760 200 Q790 158 830 200 Q860 165 900 200 L900 0 L0 0 Z" fill="#0d1018" opacity="0.8"/>

    <!-- Building wall (dark stone texture) -->
    <rect x="0" y="0" width="460" height="600" fill="#1a1c1e"/>
    <!-- Stone rows pattern -->
    <g fill="none" stroke="#2a2c2e" stroke-width="1" opacity="0.6">
      <g transform="translate(0,0)">
        <rect x="2" y="15" width="55" height="22" rx="1" fill="#252729"/><rect x="60" y="15" width="70" height="22" rx="1" fill="#222425"/><rect x="133" y="15" width="48" height="22" rx="1" fill="#27292b"/><rect x="184" y="15" width="62" height="22" rx="1" fill="#222425"/><rect x="249" y="15" width="55" height="22" rx="1" fill="#252729"/><rect x="307" y="15" width="75" height="22" rx="1" fill="#222425"/><rect x="385" y="15" width="68" height="22" rx="1" fill="#27292b"/>
        <rect x="2" y="40" width="68" height="22" rx="1" fill="#252729"/><rect x="73" y="40" width="52" height="22" rx="1" fill="#222425"/><rect x="128" y="40" width="64" height="22" rx="1" fill="#27292b"/><rect x="195" y="40" width="48" height="22" rx="1" fill="#222425"/><rect x="246" y="40" width="72" height="22" rx="1" fill="#252729"/><rect x="321" y="40" width="56" height="22" rx="1" fill="#222425"/><rect x="380" y="40" width="73" height="22" rx="1" fill="#27292b"/>
        <rect x="2" y="65" width="58" height="22" rx="1" fill="#222425"/><rect x="63" y="65" width="72" height="22" rx="1" fill="#252729"/><rect x="138" y="65" width="50" height="22" rx="1" fill="#222425"/><rect x="191" y="65" width="66" height="22" rx="1" fill="#27292b"/><rect x="260" y="65" width="54" height="22" rx="1" fill="#222425"/><rect x="317" y="65" width="76" height="22" rx="1" fill="#252729"/><rect x="396" y="65" width="57" height="22" rx="1" fill="#27292b"/>
        <rect x="2" y="90" width="72" height="22" rx="1" fill="#252729"/><rect x="77" y="90" width="50" height="22" rx="1" fill="#222425"/><rect x="130" y="90" width="68" height="22" rx="1" fill="#27292b"/><rect x="201" y="90" width="52" height="22" rx="1" fill="#222425"/><rect x="256" y="90" width="74" height="22" rx="1" fill="#252729"/><rect x="333" y="90" width="56" height="22" rx="1" fill="#222425"/><rect x="392" y="90" width="61" height="22" rx="1" fill="#27292b"/>
        <rect x="2" y="115" width="60" height="22" rx="1" fill="#222425"/><rect x="65" y="115" width="74" height="22" rx="1" fill="#252729"/><rect x="142" y="115" width="52" height="22" rx="1" fill="#27292b"/><rect x="197" y="115" width="68" height="22" rx="1" fill="#222425"/><rect x="268" y="115" width="56" height="22" rx="1" fill="#252729"/><rect x="327" y="115" width="74" height="22" rx="1" fill="#222425"/><rect x="404" y="115" width="49" height="22" rx="1" fill="#27292b"/>
        <rect x="2" y="140" width="74" height="22" rx="1" fill="#252729"/><rect x="79" y="140" width="52" height="22" rx="1" fill="#222425"/><rect x="134" y="140" width="66" height="22" rx="1" fill="#27292b"/><rect x="203" y="140" width="54" height="22" rx="1" fill="#222425"/><rect x="260" y="140" width="76" height="22" rx="1" fill="#252729"/><rect x="339" y="140" width="54" height="22" rx="1" fill="#222425"/><rect x="396" y="140" width="57" height="22" rx="1" fill="#27292b"/>
        <rect x="2" y="165" width="58" height="22" rx="1" fill="#222425"/><rect x="63" y="165" width="70" height="22" rx="1" fill="#252729"/><rect x="136" y="165" width="56" height="22" rx="1" fill="#27292b"/><rect x="195" y="165" width="68" height="22" rx="1" fill="#222425"/><rect x="266" y="165" width="58" height="22" rx="1" fill="#252729"/><rect x="327" y="165" width="72" height="22" rx="1" fill="#222425"/><rect x="402" y="165" width="51" height="22" rx="1" fill="#27292b"/>
      </g>
      <!-- Repeat rows for full height -->
      <g transform="translate(0,187)">
        <rect x="2" y="0" width="66" height="22" rx="1" fill="#252729"/><rect x="71" y="0" width="54" height="22" rx="1" fill="#222425"/><rect x="128" y="0" width="70" height="22" rx="1" fill="#27292b"/><rect x="201" y="0" width="50" height="22" rx="1" fill="#222425"/><rect x="254" y="0" width="74" height="22" rx="1" fill="#252729"/><rect x="331" y="0" width="56" height="22" rx="1" fill="#222425"/><rect x="390" y="0" width="63" height="22" rx="1" fill="#27292b"/>
        <rect x="2" y="25" width="54" height="22" rx="1" fill="#222425"/><rect x="59" y="25" width="72" height="22" rx="1" fill="#252729"/><rect x="134" y="25" width="54" height="22" rx="1" fill="#27292b"/><rect x="191" y="25" width="68" height="22" rx="1" fill="#222425"/><rect x="262" y="25" width="60" height="22" rx="1" fill="#252729"/><rect x="325" y="25" width="74" height="22" rx="1" fill="#222425"/><rect x="402" y="25" width="51" height="22" rx="1" fill="#27292b"/>
      </g>
      <g transform="translate(0,237)">
        <rect x="2" y="0" width="70" height="22" rx="1" fill="#252729"/><rect x="75" y="0" width="52" height="22" rx="1" fill="#222425"/><rect x="130" y="0" width="68" height="22" rx="1" fill="#27292b"/><rect x="201" y="0" width="54" height="22" rx="1" fill="#222425"/><rect x="258" y="0" width="74" height="22" rx="1" fill="#252729"/><rect x="335" y="0" width="56" height="22" rx="1" fill="#222425"/><rect x="394" y="0" width="59" height="22" rx="1" fill="#27292b"/>
        <rect x="2" y="25" width="56" height="22" rx="1" fill="#222425"/><rect x="61" y="25" width="74" height="22" rx="1" fill="#252729"/><rect x="138" y="25" width="52" height="22" rx="1" fill="#27292b"/><rect x="193" y="25" width="68" height="22" rx="1" fill="#222425"/><rect x="264" y="25" width="60" height="22" rx="1" fill="#252729"/><rect x="327" y="25" width="72" height="22" rx="1" fill="#222425"/><rect x="402" y="25" width="51" height="22" rx="1" fill="#27292b"/>
        <rect x="2" y="50" width="64" height="22" rx="1" fill="#252729"/><rect x="69" y="50" width="56" height="22" rx="1" fill="#222425"/><rect x="128" y="50" width="70" height="22" rx="1" fill="#27292b"/><rect x="201" y="50" width="52" height="22" rx="1" fill="#222425"/><rect x="256" y="50" width="76" height="22" rx="1" fill="#252729"/><rect x="335" y="50" width="56" height="22" rx="1" fill="#222425"/><rect x="394" y="50" width="59" height="22" rx="1" fill="#27292b"/>
        <rect x="2" y="75" width="72" height="22" rx="1" fill="#222425"/><rect x="77" y="75" width="50" height="22" rx="1" fill="#252729"/><rect x="130" y="75" width="68" height="22" rx="1" fill="#27292b"/><rect x="201" y="75" width="54" height="22" rx="1" fill="#222425"/><rect x="258" y="75" width="74" height="22" rx="1" fill="#252729"/><rect x="335" y="75" width="56" height="22" rx="1" fill="#222425"/><rect x="394" y="75" width="59" height="22" rx="1" fill="#27292b"/>
        <rect x="2" y="100" width="58" height="22" rx="1" fill="#252729"/><rect x="63" y="100" width="72" height="22" rx="1" fill="#222425"/><rect x="138" y="100" width="52" height="22" rx="1" fill="#27292b"/><rect x="193" y="100" width="68" height="22" rx="1" fill="#222425"/><rect x="264" y="100" width="60" height="22" rx="1" fill="#252729"/><rect x="327" y="100" width="72" height="22" rx="1" fill="#222425"/>
        <rect x="2" y="125" width="68" height="22" rx="1" fill="#252729"/><rect x="73" y="125" width="52" height="22" rx="1" fill="#222425"/><rect x="128" y="125" width="66" height="22" rx="1" fill="#27292b"/>
        <rect x="2" y="150" width="60" height="22" rx="1" fill="#222425"/><rect x="65" y="150" width="74" height="22" rx="1" fill="#252729"/><rect x="142" y="150" width="52" height="22" rx="1" fill="#27292b"/>
      </g>
    </g>

    <!-- Large windows in wall -->
    <!-- Window 1 -->
    <rect x="30" y="80" width="180" height="380" rx="4" fill="#1a2030" opacity="0.8"/>
    <rect x="30" y="80" width="180" height="380" rx="4" fill="none" stroke="#333" stroke-width="3"/>
    <!-- Window reflection/interior light -->
    <rect x="34" y="84" width="172" height="372" fill="#1e2535" opacity="0.9"/>
    <rect x="34" y="84" width="172" height="372" fill="none" stroke="#555" stroke-width="1"/>
    <!-- Interior warm glow -->
    <ellipse cx="120" cy="270" rx="100" ry="160" fill="#aa6622" opacity="0.08"/>
    <!-- Mountain reflection in window -->
    <path d="M34 320 L80 240 L120 290 L160 210 L206 310 L206 456 L34 456 Z" fill="#1a2030" opacity="0.7"/>
    <!-- Tree reflection -->
    <rect x="70" y="200" width="4" height="256" fill="#252a30" opacity="0.8"/>
    <ellipse cx="72" cy="200" rx="12" ry="30" fill="#252a30" opacity="0.8"/>

    <!-- Window 2 -->
    <rect x="250" y="80" width="180" height="380" rx="4" fill="#1a2030" opacity="0.8"/>
    <rect x="250" y="80" width="180" height="380" rx="4" fill="none" stroke="#333" stroke-width="3"/>
    <rect x="254" y="84" width="172" height="372" fill="#1e2535" opacity="0.9"/>
    <rect x="254" y="84" width="172" height="372" fill="none" stroke="#555" stroke-width="1"/>
    <ellipse cx="340" cy="270" rx="100" ry="160" fill="#aa6622" opacity="0.06"/>

    <!-- Column between windows -->
    <rect x="210" y="0" width="40" height="600" fill="#1c1e20"/>
    <rect x="210" y="0" width="40" height="600" fill="none" stroke="#252729" stroke-width="1"/>

    <!-- Wall sconces -->
    <g transform="translate(215, 120)">
      <rect x="-8" y="0" width="16" height="6" rx="2" fill="#333"/>
      <rect x="-4" y="-16" width="8" height="18" fill="#2a2a2a"/>
      <ellipse cx="0" cy="-2" rx="18" ry="14" fill="url(#glow1)" filter="url(#blur-sm)" opacity="0.8"/>
      <ellipse cx="0" cy="-2" rx="30" ry="24" fill="url(#glow1)" filter="url(#blur-soft)" opacity="0.5"/>
      <!-- small dot of light -->
      <circle cx="0" cy="-4" r="3" fill="#ffdd88"/>
    </g>
    <g transform="translate(215, 280)">
      <rect x="-8" y="0" width="16" height="6" rx="2" fill="#333"/>
      <rect x="-4" y="-16" width="8" height="18" fill="#2a2a2a"/>
      <ellipse cx="0" cy="-2" rx="18" ry="14" fill="url(#glow1)" filter="url(#blur-sm)" opacity="0.8"/>
      <ellipse cx="0" cy="-2" rx="30" ry="24" fill="url(#glow1)" filter="url(#blur-soft)" opacity="0.5"/>
      <circle cx="0" cy="-4" r="3" fill="#ffdd88"/>
    </g>

    <!-- Gravel bed area -->
    <rect x="430" y="380" width="470" height="220" fill="#2a2720" rx="0"/>
    <!-- gravel texture -->
    <g opacity="0.7" fill="#3a3630">
      <circle cx="450" cy="400" r="4"/><circle cx="470" cy="420" r="3"/><circle cx="490" cy="390" r="5"/><circle cx="510" cy="415" r="4"/><circle cx="530" cy="395" r="3"/>
      <circle cx="550" cy="410" r="4"/><circle cx="570" cy="385" r="5"/><circle cx="590" cy="420" r="3"/><circle cx="610" cy="400" r="4"/><circle cx="630" cy="415" r="3"/>
      <circle cx="650" cy="390" r="5"/><circle cx="670" cy="410" r="4"/><circle cx="690" cy="395" r="3"/><circle cx="710" cy="420" r="4"/><circle cx="730" cy="400" r="3"/>
      <circle cx="750" cy="415" r="5"/><circle cx="770" cy="390" r="4"/><circle cx="790" cy="410" r="3"/><circle cx="810" cy="395" r="4"/><circle cx="830" cy="420" r="3"/>
      <circle cx="455" cy="435" r="3"/><circle cx="480" cy="450" r="4"/><circle cx="505" cy="440" r="5"/><circle cx="525" cy="455" r="3"/><circle cx="545" cy="435" r="4"/>
      <circle cx="565" cy="450" r="3"/><circle cx="585" cy="440" r="4"/><circle cx="605" cy="455" r="5"/><circle cx="625" cy="435" r="3"/><circle cx="645" cy="450" r="4"/>
      <circle cx="665" cy="440" r="3"/><circle cx="685" cy="455" r="4"/><circle cx="705" cy="435" r="5"/><circle cx="725" cy="450" r="3"/><circle cx="745" cy="440" r="4"/>
      <circle cx="460" cy="470" r="5"/><circle cx="488" cy="480" r="3"/><circle cx="515" cy="465" r="4"/><circle cx="540" cy="475" r="3"/><circle cx="565" cy="460" r="5"/>
      <circle cx="590" cy="475" r="4"/><circle cx="615" cy="462" r="3"/><circle cx="640" cy="478" r="4"/><circle cx="665" cy="465" r="5"/><circle cx="690" cy="472" r="3"/>
      <circle cx="715" cy="460" r="4"/><circle cx="740" cy="476" r="3"/><circle cx="765" cy="463" r="5"/><circle cx="790" cy="472" r="4"/><circle cx="815" cy="465" r="3"/>
    </g>

    <!-- Stone stepping circles (main feature) -->
    <!-- Circle 1 - foreground large -->
    <ellipse cx="520" cy="530" rx="70" ry="45" fill="#1a1917"/>
    <ellipse cx="520" cy="530" rx="70" ry="45" fill="none" stroke="#2a2825" stroke-width="2"/>
    <!-- Circle 2 -->
    <ellipse cx="590" cy="490" rx="60" ry="38" fill="#1c1b19"/>
    <ellipse cx="590" cy="490" rx="60" ry="38" fill="none" stroke="#2a2825" stroke-width="1.5"/>
    <!-- Circle 3 -->
    <ellipse cx="660" cy="458" rx="52" ry="33" fill="#1a1917"/>
    <ellipse cx="660" cy="458" rx="52" ry="33" fill="none" stroke="#282725" stroke-width="1.5"/>
    <!-- Circle 4 -->
    <ellipse cx="720" cy="432" rx="44" ry="28" fill="#1c1b19"/>
    <!-- Circle 5 -->
    <ellipse cx="772" cy="412" rx="38" ry="24" fill="#1a1917"/>
    <!-- Circle 6 -->
    <ellipse cx="815" cy="397" rx="32" ry="20" fill="#1c1b19"/>
    <!-- Circle 7 -->
    <ellipse cx="850" cy="386" rx="28" ry="17" fill="#1a1917"/>
    <!-- Circle 8 -->
    <ellipse cx="878" cy="377" rx="22" ry="14" fill="#1c1b19"/>

    <!-- Glow under stone circles from lanterns -->
    <ellipse cx="560" cy="520" rx="90" ry="30" fill="#cc8822" filter="url(#blur-soft)" opacity="0.18"/>
    <ellipse cx="640" cy="475" rx="70" ry="22" fill="#cc8822" filter="url(#blur-soft)" opacity="0.15"/>
    <ellipse cx="710" cy="445" rx="58" ry="18" fill="#cc8822" filter="url(#blur-soft)" opacity="0.12"/>

    <!-- LANTERNS on gravel -->
    <!-- Lantern 1 - big foreground left -->
    <g transform="translate(450, 490)">
      <!-- glow -->
      <ellipse cx="0" cy="15" rx="60" ry="40" fill="url(#lantern1)" filter="url(#blur-glow)" opacity="0.7"/>
      <!-- body -->
      <rect x="-14" y="-5" width="28" height="36" rx="3" fill="#1a1a1a" stroke="#333" stroke-width="1.5"/>
      <!-- flame/light inside -->
      <rect x="-10" y="-1" width="20" height="28" rx="2" fill="#dd8800" opacity="0.4"/>
      <ellipse cx="0" cy="12" rx="8" ry="12" fill="#ffcc44" opacity="0.85"/>
      <ellipse cx="0" cy="8" rx="4" ry="7" fill="#fff8cc" opacity="0.9"/>
      <!-- top handle -->
      <rect x="-3" y="-14" width="6" height="12" rx="2" fill="#2a2a2a"/>
      <!-- base -->
      <rect x="-16" y="30" width="32" height="6" rx="2" fill="#2a2a2a"/>
    </g>

    <!-- Lantern 2 - medium -->
    <g transform="translate(530, 460)">
      <ellipse cx="0" cy="12" rx="50" ry="32" fill="url(#lantern2)" filter="url(#blur-glow)" opacity="0.6"/>
      <rect x="-11" y="-4" width="22" height="28" rx="2" fill="#1a1a1a" stroke="#333" stroke-width="1.2"/>
      <rect x="-8" y="0" width="16" height="22" rx="2" fill="#cc7700" opacity="0.35"/>
      <ellipse cx="0" cy="10" rx="6" ry="9" fill="#ffcc44" opacity="0.8"/>
      <ellipse cx="0" cy="7" rx="3" ry="5" fill="#fff8cc" opacity="0.9"/>
      <rect x="-2" y="-11" width="4" height="9" rx="1" fill="#2a2a2a"/>
      <rect x="-13" y="24" width="26" height="5" rx="1" fill="#2a2a2a"/>
    </g>

    <!-- Lantern 3 -->
    <g transform="translate(610, 435)">
      <ellipse cx="0" cy="10" rx="40" ry="26" fill="url(#lantern1)" filter="url(#blur-glow)" opacity="0.55"/>
      <rect x="-9" y="-3" width="18" height="23" rx="2" fill="#1a1a1a" stroke="#333" stroke-width="1"/>
      <ellipse cx="0" cy="8" rx="5" ry="7.5" fill="#ffcc44" opacity="0.75"/>
      <ellipse cx="0" cy="6" rx="2.5" ry="4" fill="#fff8cc" opacity="0.9"/>
      <rect x="-2" y="-9" width="4" height="8" rx="1" fill="#2a2a2a"/>
    </g>

    <!-- Lantern 4 -->
    <g transform="translate(680, 415)">
      <ellipse cx="0" cy="9" rx="34" ry="22" fill="url(#lantern2)" filter="url(#blur-glow)" opacity="0.5"/>
      <rect x="-8" y="-3" width="16" height="20" rx="2" fill="#1a1a1a" stroke="#333" stroke-width="1"/>
      <ellipse cx="0" cy="7" rx="4.5" ry="6.5" fill="#ffcc44" opacity="0.7"/>
      <rect x="-2" y="-8" width="4" height="7" rx="1" fill="#2a2a2a"/>
    </g>

    <!-- Lantern 5 -->
    <g transform="translate(748, 398)">
      <ellipse cx="0" cy="8" rx="28" ry="18" fill="url(#lantern1)" filter="url(#blur-glow)" opacity="0.45"/>
      <rect x="-7" y="-2" width="14" height="18" rx="2" fill="#1a1a1a" stroke="#333" stroke-width="0.8"/>
      <ellipse cx="0" cy="6" rx="4" ry="5.5" fill="#ffcc44" opacity="0.65"/>
    </g>

    <!-- Large vase/pot with plant -->
    <g transform="translate(370, 440)">
      <!-- glow around vase -->
      <ellipse cx="0" cy="60" rx="50" ry="20" fill="#884400" filter="url(#blur-soft)" opacity="0.2"/>
      <!-- vase body -->
      <path d="M-30 60 Q-35 20 -20 -10 Q-10 -25 0 -28 Q10 -25 20 -10 Q35 20 30 60 Z" fill="#2a2420"/>
      <path d="M-30 60 Q-35 20 -20 -10 Q-10 -25 0 -28 Q10 -25 20 -10 Q35 20 30 60 Z" fill="none" stroke="#3a3430" stroke-width="1"/>
      <!-- base -->
      <ellipse cx="0" cy="60" rx="32" ry="8" fill="#222020"/>
      <ellipse cx="0" cy="60" rx="32" ry="8" fill="none" stroke="#3a3430" stroke-width="1"/>
      <!-- plant stems -->
      <path d="M0 -20 Q-8 -50 -5 -80 Q-3 -95 0 -98" stroke="#3a4a2a" stroke-width="3" fill="none"/>
      <path d="M0 -20 Q10 -55 8 -82" stroke="#3a4a2a" stroke-width="2.5" fill="none"/>
      <path d="M0 -20 Q-15 -45 -18 -70" stroke="#3a4a2a" stroke-width="2" fill="none"/>
      <path d="M0 -20 Q20 -42 22 -65" stroke="#3a4a2a" stroke-width="2" fill="none"/>
      <!-- grass blades -->
      <path d="M0 -98 Q-4 -115 -2 -130" stroke="#4a5a38" stroke-width="2" fill="none"/>
      <path d="M0 -98 Q4 -112 6 -128" stroke="#4a5a38" stroke-width="2" fill="none"/>
      <path d="M8 -82 Q12 -98 10 -115" stroke="#4a5a38" stroke-width="1.5" fill="none"/>
      <path d="M-18 -70 Q-22 -84 -20 -98" stroke="#4a5a38" stroke-width="1.5" fill="none"/>
      <path d="M22 -65 Q26 -78 25 -92" stroke="#4a5a38" stroke-width="1.5" fill="none"/>
    </g>

    <!-- Wooden deck on right -->
    <rect x="830" y="300" width="70" height="300" fill="#1a1815"/>
    <!-- deck lines -->
    <g stroke="#222018" stroke-width="1" opacity="0.8">
      <line x1="830" y1="320" x2="900" y2="320"/>
      <line x1="830" y1="340" x2="900" y2="340"/>
      <line x1="830" y1="360" x2="900" y2="360"/>
      <line x1="830" y1="380" x2="900" y2="380"/>
      <line x1="830" y1="400" x2="900" y2="400"/>
      <line x1="830" y1="420" x2="900" y2="420"/>
      <line x1="830" y1="440" x2="900" y2="440"/>
      <line x1="830" y1="460" x2="900" y2="460"/>
      <line x1="830" y1="480" x2="900" y2="480"/>
      <line x1="830" y1="500" x2="900" y2="500"/>
      <line x1="830" y1="520" x2="900" y2="520"/>
      <line x1="830" y1="540" x2="900" y2="540"/>
      <line x1="830" y1="560" x2="900" y2="560"/>
      <line x1="830" y1="580" x2="900" y2="580"/>
    </g>

    <!-- Edge lanterns on deck boundary -->
    <g transform="translate(830, 380)">
      <ellipse cx="0" cy="8" rx="25" ry="16" fill="#cc8822" filter="url(#blur-soft)" opacity="0.4"/>
      <rect x="-5" y="-2" width="10" height="14" rx="1" fill="#1a1a1a"/>
      <ellipse cx="0" cy="5" rx="3.5" ry="4.5" fill="#ffcc44" opacity="0.7"/>
    </g>
    <g transform="translate(830, 440)">
      <ellipse cx="0" cy="8" rx="25" ry="16" fill="#cc8822" filter="url(#blur-soft)" opacity="0.4"/>
      <rect x="-5" y="-2" width="10" height="14" rx="1" fill="#1a1a1a"/>
      <ellipse cx="0" cy="5" rx="3.5" ry="4.5" fill="#ffcc44" opacity="0.7"/>
    </g>
    <g transform="translate(830, 500)">
      <ellipse cx="0" cy="8" rx="25" ry="16" fill="#cc8822" filter="url(#blur-soft)" opacity="0.4"/>
      <rect x="-5" y="-2" width="10" height="14" rx="1" fill="#1a1a1a"/>
      <ellipse cx="0" cy="5" rx="3.5" ry="4.5" fill="#ffcc44" opacity="0.7"/>
    </g>

    <!-- Small bucket lantern far left -->
    <g transform="translate(455, 540)">
      <ellipse cx="0" cy="12" rx="40" ry="22" fill="#cc8822" filter="url(#blur-soft)" opacity="0.5"/>
      <rect x="-18" y="0" width="36" height="28" rx="3" fill="#1a1a1a" stroke="#333" stroke-width="1.5"/>
      <rect x="-14" y="4" width="28" height="20" rx="2" fill="#dd8800" opacity="0.3"/>
      <ellipse cx="0" cy="14" rx="8" ry="8" fill="#ffcc44" opacity="0.8"/>
      <ellipse cx="0" cy="11" rx="4" ry="5" fill="#fff8cc" opacity="0.9"/>
      <!-- handle arch -->
      <path d="M-12 0 Q0 -18 12 0" stroke="#333" stroke-width="2" fill="none"/>
    </g>

    <!-- Overhead warm ambient glow across bottom -->
    <rect x="430" y="360" width="470" height="240" fill="url(#lantern2)" filter="url(#blur-glow)" opacity="0.08"/>

    <!-- Building top edge / horizontal beam -->
    <rect x="0" y="0" width="900" height="14" fill="#111315"/>

    <!-- Overall dark vignette -->
    <radialGradient id="vig" cx="50%" cy="50%" r="70%">
      <stop offset="0%" stop-color="#000000" stop-opacity="0"/>
      <stop offset="100%" stop-color="#000000" stop-opacity="0.55"/>
    </radialGradient>
    <rect width="900" height="600" fill="url(#vig)"/>
  </g>
</svg>
