<svg xmlns="http://www.w3.org/2000/svg" viewBox="0 0 900 600" width="900" height="600">
  <defs>
    <linearGradient id="wood-floor" x1="0" y1="0" x2="0" y2="1">
      <stop offset="0%" stop-color="#b8894a"/>
      <stop offset="40%" stop-color="#a07838"/>
      <stop offset="100%" stop-color="#8a6428"/>
    </linearGradient>
    <linearGradient id="wood-wall" x1="0" y1="0" x2="1" y2="0">
      <stop offset="0%" stop-color="#7a5e2a"/>
      <stop offset="50%" stop-color="#9a7840"/>
      <stop offset="100%" stop-color="#7a5e2a"/>
    </linearGradient>
    <linearGradient id="wood-ceiling" x1="0" y1="0" x2="0" y2="1">
      <stop offset="0%" stop-color="#8a6a30"/>
      <stop offset="100%" stop-color="#a07840"/>
    </linearGradient>
    <linearGradient id="loft-floor" x1="0" y1="0" x2="0" y2="1">
      <stop offset="0%" stop-color="#9a7438"/>
      <stop offset="100%" stop-color="#7a5a20"/>
    </linearGradient>
    <radialGradient id="spot1" cx="50%" cy="50%" r="50%">
      <stop offset="0%" stop-color="#fff8e8" stop-opacity="0.95"/>
      <stop offset="40%" stop-color="#ffe8b0" stop-opacity="0.5"/>
      <stop offset="100%" stop-color="#ff9900" stop-opacity="0"/>
    </radialGradient>
    <radialGradient id="window-out" cx="50%" cy="40%" r="60%">
      <stop offset="0%" stop-color="#8ab4aa"/>
      <stop offset="60%" stop-color="#6a9090"/>
      <stop offset="100%" stop-color="#3a5858"/>
    </radialGradient>
    <filter id="spot-glow">
      <feGaussianBlur stdDeviation="10"/>
    </filter>
    <filter id="spot-glow-sm">
      <feGaussianBlur stdDeviation="5"/>
    </filter>
    <filter id="spot-glow-lg">
      <feGaussianBlur stdDeviation="20"/>
    </filter>
    <clipPath id="clip4"><rect width="900" height="600"/></clipPath>
  </defs>

  <g clip-path="url(#clip4)">
    <!-- Background warm wood room tone -->
    <rect width="900" height="600" fill="#6a4e20"/>

    <!-- ========= A-FRAME INTERIOR ========= -->

    <!-- LEFT WALL - wood planks vertical -->
    <rect x="0" y="0" width="180" height="600" fill="#7a5e2a"/>
    <g fill="#6e5422" stroke="#8a6a32" stroke-width="0.5">
      <rect x="0" y="0" width="18" height="600"/><rect x="20" y="0" width="18" height="600"/>
      <rect x="40" y="0" width="18" height="600"/><rect x="60" y="0" width="18" height="600"/>
      <rect x="80" y="0" width="18" height="600"/><rect x="100" y="0" width="18" height="600"/>
      <rect x="120" y="0" width="18" height="600"/><rect x="140" y="0" width="18" height="600"/>
      <rect x="160" y="0" width="18" height="600"/>
    </g>
    <!-- wood grain lines on left wall -->
    <g stroke="#9a7a3a" stroke-width="0.5" opacity="0.3">
      <line x1="5" y1="0" x2="5" y2="600"/><line x1="12" y1="0" x2="12" y2="600"/>
      <line x1="25" y1="0" x2="25" y2="600"/><line x1="32" y1="0" x2="32" y2="600"/>
      <line x1="45" y1="0" x2="45" y2="600"/><line x1="52" y1="0" x2="52" y2="600"/>
    </g>

    <!-- RIGHT WALL - kitchen/shelves -->
    <rect x="620" y="0" width="280" height="600" fill="#7a5e2a"/>
    <g fill="#6e5422" stroke="#8a6a32" stroke-width="0.5">
      <rect x="620" y="0" width="18" height="600"/><rect x="640" y="0" width="18" height="600"/>
      <rect x="660" y="0" width="18" height="600"/><rect x="680" y="0" width="18" height="600"/>
      <rect x="700" y="0" width="18" height="600"/><rect x="720" y="0" width="18" height="600"/>
      <rect x="740" y="0" width="18" height="600"/><rect x="760" y="0" width="18" height="600"/>
      <rect x="780" y="0" width="18" height="600"/><rect x="800" y="0" width="18" height="600"/>
      <rect x="820" y="0" width="18" height="600"/><rect x="840" y="0" width="18" height="600"/>
      <rect x="860" y="0" width="18" height="600"/><rect x="880" y="0" width="18" height="600"/>
    </g>

    <!-- CEILING - angled wooden A-frame -->
    <!-- Left ceiling slope -->
    <polygon points="0,0 450,0 450,90 0,320" fill="#8a6a30"/>
    <!-- plank lines on left ceiling slope -->
    <g stroke="#7a5a20" stroke-width="1" opacity="0.5">
      <line x1="0" y1="40" x2="450" y2="18"/><line x1="0" y1="80" x2="450" y2="35"/>
      <line x1="0" y1="120" x2="450" y2="52"/><line x1="0" y1="165" x2="450" y2="70"/>
      <line x1="0" y1="210" x2="450" y2="90"/>
    </g>
    <!-- Right ceiling slope -->
    <polygon points="450,0 900,0 900,320 450,90" fill="#9a7438"/>
    <g stroke="#8a6428" stroke-width="1" opacity="0.5">
      <line x1="450" y1="18" x2="900" y2="40"/><line x1="450" y1="35" x2="900" y2="80"/>
      <line x1="450" y1="52" x2="900" y2="125"/><line x1="450" y1="70" x2="900" y2="175"/>
      <line x1="450" y1="90" x2="900" y2="225"/>
    </g>

    <!-- RIDGE BEAM at top center -->
    <rect x="430" y="0" width="40" height="100" fill="#3a2a0e"/>
    <rect x="435" y="0" width="30" height="100" fill="#4a3a1a"/>
    <!-- Ridge beam cross pieces -->
    <g fill="#2a1e08">
      <rect x="425" y="10" width="50" height="6" rx="2"/><rect x="425" y="30" width="50" height="6" rx="2"/>
      <rect x="425" y="50" width="50" height="6" rx="2"/><rect x="425" y="70" width="50" height="6" rx="2"/>
    </g>

    <!-- FLOOR -->
    <rect x="0" y="480" width="900" height="120" fill="url(#wood-floor)"/>
    <!-- floor plank lines -->
    <g stroke="#9a7430" stroke-width="1" opacity="0.35">
      <line x1="0" y1="498" x2="900" y2="498"/><line x1="0" y1="516" x2="900" y2="516"/>
      <line x1="0" y1="534" x2="900" y2="534"/><line x1="0" y1="552" x2="900" y2="552"/>
      <line x1="0" y1="570" x2="900" y2="570"/><line x1="0" y1="588" x2="900" y2="588"/>
    </g>
    <!-- floor vertical lines (plank cuts) -->
    <g stroke="#9a7430" stroke-width="0.5" opacity="0.3">
      <line x1="120" y1="480" x2="120" y2="600"/><line x1="280" y1="480" x2="280" y2="600"/>
      <line x1="440" y1="480" x2="440" y2="600"/><line x1="600" y1="480" x2="600" y2="600"/>
      <line x1="760" y1="480" x2="760" y2="600"/>
    </g>
    <!-- floor sheen -->
    <rect x="0" y="480" width="900" height="30" fill="rgba(255,220,150,0.07)"/>

    <!-- RUG / carpet in center -->
    <ellipse cx="400" cy="540" rx="200" ry="50" fill="#4a3a28" opacity="0.7"/>
    <!-- rug texture -->
    <ellipse cx="400" cy="540" rx="190" ry="46" fill="none" stroke="#5a4a38" stroke-width="2" opacity="0.5"/>
    <ellipse cx="400" cy="540" rx="160" ry="38" fill="none" stroke="#5a4a38" stroke-width="1.5" opacity="0.4"/>
    <ellipse cx="400" cy="540" rx="120" ry="28" fill="none" stroke="#5a4a38" stroke-width="1" opacity="0.3"/>

    <!-- ========= LOFT LEVEL ========= -->
    <!-- Loft floor platform -->
    <rect x="180" y="0" width="540" height="200" fill="url(#loft-floor)"/>
    <!-- loft floor planks -->
    <g stroke="#6a5018" stroke-width="1.5" opacity="0.4">
      <line x1="180" y1="220" x2="720" y2="220"/>
      <line x1="180" y1="240" x2="720" y2="240"/>
      <line x1="180" y1="260" x2="720" y2="260"/>
    </g>

    <!-- Loft RAILING - black metal bars -->
    <!-- Main horizontal rail -->
    <rect x="178" y="200" width="544" height="8" rx="3" fill="#1a1a1a"/>
    <rect x="178" y="218" width="544" height="4" rx="2" fill="#242424"/>
    <!-- Vertical balusters -->
    <g fill="#1c1c1c">
      <rect x="182" y="205" width="6" height="22" rx="2"/><rect x="206" y="205" width="6" height="22" rx="2"/>
      <rect x="230" y="205" width="6" height="22" rx="2"/><rect x="254" y="205" width="6" height="22" rx="2"/>
      <rect x="278" y="205" width="6" height="22" rx="2"/><rect x="302" y="205" width="6" height="22" rx="2"/>
      <rect x="326" y="205" width="6" height="22" rx="2"/><rect x="350" y="205" width="6" height="22" rx="2"/>
      <rect x="374" y="205" width="6" height="22" rx="2"/><rect x="398" y="205" width="6" height="22" rx="2"/>
      <rect x="422" y="205" width="6" height="22" rx="2"/><rect x="446" y="205" width="6" height="22" rx="2"/>
      <rect x="470" y="205" width="6" height="22" rx="2"/><rect x="494" y="205" width="6" height="22" rx="2"/>
      <rect x="518" y="205" width="6" height="22" rx="2"/><rect x="542" y="205" width="6" height="22" rx="2"/>
      <rect x="566" y="205" width="6" height="22" rx="2"/><rect x="590" y="205" width="6" height="22" rx="2"/>
      <rect x="614" y="205" width="6" height="22" rx="2"/><rect x="638" y="205" width="6" height="22" rx="2"/>
      <rect x="662" y="205" width="6" height="22" rx="2"/><rect x="686" y="205" width="6" height="22" rx="2"/>
      <rect x="710" y="205" width="6" height="22" rx="2"/>
    </g>

    <!-- Loft - BED with pillows and dark duvet -->
    <rect x="220" y="100" width="400" height="105" rx="5" fill="#2a2a2e"/>
    <!-- mattress -->
    <rect x="225" y="105" width="390" height="95" rx="4" fill="#3a3a40"/>
    <!-- duvet folds -->
    <path d="M225 120 Q320 105 420 115 Q520 125 615 110" stroke="#4a4a52" stroke-width="12" fill="none" stroke-linecap="round"/>
    <path d="M225 140 Q340 125 440 135 Q540 145 615 130" stroke="#4a4a52" stroke-width="10" fill="none" stroke-linecap="round"/>
    <path d="M225 162 Q335 148 435 158 Q535 165 615 150" stroke="#4a4a52" stroke-width="8" fill="none" stroke-linecap="round"/>
    <!-- pillows -->
    <rect x="230" y="108" width="100" height="55" rx="6" fill="#e8e4dc"/>
    <rect x="228" y="106" width="100" height="55" rx="6" fill="#f0ece4" opacity="0.8"/>
    <rect x="338" y="108" width="100" height="55" rx="6" fill="#e8e4dc"/>
    <rect x="336" y="106" width="100" height="55" rx="6" fill="#ede9e1" opacity="0.8"/>
    <rect x="448" y="108" width="90" height="55" rx="6" fill="#e8e4dc" opacity="0.7"/>
    <!-- bed frame headboard hint -->
    <rect x="218" y="88" width="418" height="20" rx="4" fill="#2a2010"/>

    <!-- TRIANGLE WINDOW in loft (A-frame peak) -->
    <!-- window opening -->
    <polygon points="340,0 450,0 560,0 450,195" fill="url(#window-out)" opacity="0.85"/>
    <!-- window frame black bars -->
    <line x1="450" y1="0" x2="340" y2="190" stroke="#1a1a1a" stroke-width="5"/>
    <line x1="450" y1="0" x2="560" y2="190" stroke="#1a1a1a" stroke-width="5"/>
    <line x1="350" y1="190" x2="550" y2="190" stroke="#1a1a1a" stroke-width="5"/>
    <!-- horizontal bars in triangle window -->
    <line x1="390" y1="70" x2="510" y2="70" stroke="#1a1a1a" stroke-width="3"/>
    <line x1="370" y1="120" x2="530" y2="120" stroke="#1a1a1a" stroke-width="3"/>
    <line x1="350" y1="165" x2="550" y2="165" stroke="#1a1a1a" stroke-width="2.5"/>
    <!-- outside through window - trees glimpse -->
    <polygon points="340,0 450,0 450,195" fill="#3a5848" opacity="0.3"/>
    <polygon points="450,0 560,0 450,195" fill="#4a6858" opacity="0.25"/>
    <!-- tree branch glimpse through window -->
    <path d="M380 100 Q420 60 450 40 Q480 20 520 80" stroke="#2a4030" stroke-width="8" fill="none" opacity="0.5"/>
    <path d="M390 140 Q430 95 450 70" stroke="#2a4030" stroke-width="5" fill="none" opacity="0.4"/>
    <!-- daylight glow from outside -->
    <polygon points="350,0 550,0 555,195 345,195" fill="#7a9a8a" opacity="0.12"/>

    <!-- ====== STAIRS - black metal ====== -->
    <g transform="translate(610, 190)">
      <!-- stair rails -->
      <line x1="0" y1="20" x2="120" y2="310" stroke="#1a1a1a" stroke-width="10" stroke-linecap="round"/>
      <line x1="30" y1="20" x2="150" y2="310" stroke="#1a1a1a" stroke-width="10" stroke-linecap="round"/>
      <!-- steps -->
      <g fill="#1e1e1e">
        <rect x="0" y="302" width="152" height="10" rx="2"/>
        <rect x="6" y="272" width="140" height="10" rx="2"/>
        <rect x="12" y="245" width="128" height="10" rx="2"/>
        <rect x="18" y="218" width="116" height="10" rx="2"/>
        <rect x="24" y="193" width="104" height="10" rx="2"/>
        <rect x="30" y="170" width="92" height="10" rx="2"/>
        <rect x="36" y="148" width="80" height="10" rx="2"/>
        <rect x="42" y="128" width="68" height="10" rx="2"/>
        <rect x="48" y="110" width="56" height="10" rx="2"/>
        <rect x="54" y="94" width="44" height="10" rx="2"/>
        <rect x="60" y="80" width="32" height="10" rx="2"/>
        <rect x="66" y="68" width="20" height="10" rx="2"/>
      </g>
    </g>

    <!-- ====== KITCHEN RIGHT SIDE ====== -->
    <!-- Kitchen counter / shelves -->
    <!-- counter top -->
    <rect x="635" y="400" width="240" height="25" rx="3" fill="#1a1810" opacity="0.9"/>
    <rect x="635" y="400" width="240" height="8" rx="2" fill="#2a2820" opacity="0.7"/>
    <!-- cabinet body below counter -->
    <rect x="635" y="425" width="240" height="160" fill="#1a1610"/>
    <!-- cabinet door lines -->
    <g stroke="#2a2218" stroke-width="1.5">
      <line x1="635" y1="425" x2="635" y2="585"/>
      <rect x="640" y="432" width="76" height="66" rx="2" fill="none"/>
      <rect x="724" y="432" width="76" height="66" rx="2" fill="none"/>
      <rect x="808" y="432" width="62" height="66" rx="2" fill="none"/>
      <rect x="640" y="506" width="76" height="70" rx="2" fill="none"/>
      <rect x="724" y="506" width="76" height="70" rx="2" fill="none"/>
      <rect x="808" y="506" width="62" height="70" rx="2" fill="none"/>
    </g>
    <!-- cabinet handles -->
    <g fill="#3a3830">
      <rect x="672" y="462" width="12" height="3" rx="1"/><rect x="756" y="462" width="12" height="3" rx="1"/>
      <rect x="834" y="462" width="10" height="3" rx="1"/>
      <rect x="672" y="538" width="12" height="3" rx="1"/><rect x="756" y="538" width="12" height="3" rx="1"/>
    </g>

    <!-- Shelves above kitchen -->
    <!-- Shelf 1 (bottom) -->
    <rect x="635" y="310" width="240" height="10" rx="2" fill="#2a2010"/>
    <!-- shelf contents suggestion -->
    <g fill="#3a3020" opacity="0.8">
      <!-- books/items -->
      <rect x="642" y="275" width="18" height="35" rx="1"/><rect x="663" y="278" width="15" height="32" rx="1"/>
      <rect x="681" y="272" width="20" height="38" rx="1"/>
      <!-- pot/vessel -->
      <ellipse cx="730" cy="300" rx="16" ry="10" fill="#4a3018"/><rect x="715" y="280" width="30" height="22" rx="3" fill="#4a3018"/>
      <!-- bottle -->
      <rect x="762" y="268" width="12" height="42" rx="4" fill="#2a3830"/>
      <rect x="765" y="262" width="6" height="10" rx="2" fill="#2a3830"/>
    </g>
    <!-- Shelf 2 (upper) -->
    <rect x="635" y="228" width="240" height="8" rx="2" fill="#2a2010"/>
    <g fill="#3a3020" opacity="0.7">
      <rect x="640" y="195" width="16" height="33" rx="1"/><rect x="660" y="198" width="14" height="30" rx="1"/>
      <rect x="680" y="192" width="20" height="36" rx="1"/>
      <ellipse cx="735" cy="210" rx="18" ry="12" fill="#2a3028"/><rect x="718" y="198" width="34" height="14" rx="2" fill="#2a3028"/>
      <rect x="770" y="186" width="14" height="42" rx="4" fill="#3a2808"/>
    </g>

    <!-- Sink suggestion -->
    <rect x="643" y="403" width="80" height="8" rx="1" fill="#2a2820" opacity="0.5"/>
    <!-- Faucet -->
    <rect x="668" y="388" width="5" height="18" rx="2" fill="#5a5850"/>
    <path d="M670 388 Q680 382 690 386" stroke="#5a5850" stroke-width="4" fill="none" stroke-linecap="round"/>

    <!-- FIREPLACE / STOVE LEFT side -->
    <!-- firewood stack -->
    <g transform="translate(0, 280)">
      <rect x="0" y="0" width="100" height="220" fill="#1a1410"/>
      <!-- log cross sections (circles) -->
      <g fill="#2a1e0e" stroke="#3a2e1a" stroke-width="0.8">
        <!-- row 1 -->
        <circle cx="18" cy="215" r="14"/><circle cx="44" cy="215" r="14"/><circle cx="70" cy="215" r="14"/><circle cx="96" cy="215" r="12"/>
        <!-- row 2 -->
        <circle cx="10" cy="188" r="12"/><circle cx="34" cy="188" r="14"/><circle cx="60" cy="188" r="13"/><circle cx="85" cy="188" r="14"/>
        <!-- row 3 -->
        <circle cx="18" cy="162" r="13"/><circle cx="44" cy="162" r="14"/><circle cx="70" cy="162" r="12"/><circle cx="96" cy="162" r="13"/>
        <!-- row 4 -->
        <circle cx="10" cy="136" r="12"/><circle cx="35" cy="136" r="13"/><circle cx="60" cy="136" r="14"/><circle cx="85" cy="136" r="12"/>
        <!-- row 5 -->
        <circle cx="18" cy="110" r="13"/><circle cx="44" cy="110" r="12"/><circle cx="70" cy="110" r="14"/><circle cx="95" cy="110" r="12"/>
        <!-- row 6 -->
        <circle cx="10" cy="85" r="12"/><circle cx="35" cy="85" r="13"/><circle cx="60" cy="85" r="12"/><circle cx="85" cy="85" r="13"/>
        <!-- ring details inside logs -->
        <g stroke="#3a2e1a" stroke-width="0.5" fill="none" opacity="0.6">
          <circle cx="18" cy="215" r="8"/><circle cx="44" cy="215" r="8"/>
          <circle cx="18" cy="188" r="7"/><circle cx="60" cy="188" r="7"/>
        </g>
      </g>
    </g>

    <!-- Black wall-mount fireplace/stove -->
    <rect x="0" y="200" width="140" height="80" rx="4" fill="#111111"/>
    <rect x="5" y="205" width="130" height="70" rx="3" fill="#1a1a1a"/>
    <!-- fire inside stove window -->
    <rect x="15" y="218" width="110" height="48" rx="2" fill="#221408"/>
    <!-- fire glow -->
    <ellipse cx="70" cy="250" rx="50" ry="20" fill="#dd6600" filter="url(#spot-glow)" opacity="0.5"/>
    <ellipse cx="70" cy="255" rx="30" ry="12" fill="#ee8800" opacity="0.7"/>
    <ellipse cx="70" cy="258" rx="15" ry="8" fill="#ffcc44" opacity="0.8"/>
    <!-- stove pipe -->
    <rect x="55" y="140" width="30" height="65" rx="4" fill="#111111"/>

    <!-- ====== SPOTLIGHT LIGHTING ====== -->
    <!-- Ceiling spotlights (recessed) -->
    <!-- Main spot 1 - center floor -->
    <ellipse cx="300" cy="0" rx="3" ry="3" fill="#ffffff"/>
    <path d="M298 0 L150 480 M302 0 L450 480" stroke="rgba(255,248,220,0.04)" stroke-width="1"/>
    <ellipse cx="300" cy="490" rx="120" ry="30" fill="url(#spot1)" filter="url(#spot-glow-lg)" opacity="0.35"/>

    <!-- Spot 2 -->
    <ellipse cx="550" cy="0" rx="3" ry="3" fill="#ffffff" opacity="0.8"/>
    <ellipse cx="590" cy="490" rx="100" ry="26" fill="url(#spot1)" filter="url(#spot-glow-lg)" opacity="0.3"/>

    <!-- Overall room warm ambient -->
    <rect width="900" height="600" fill="#cc8820" opacity="0.06"/>

    <!-- Recessed light dots on ridge -->
    <g fill="#ffffff" opacity="0.9">
      <circle cx="450" cy="10" r="4"/>
      <circle cx="450" cy="10" r="8" fill="#fff8e0" opacity="0.5"/>
    </g>
    <ellipse cx="450" cy="20" rx="60" ry="20" fill="#fff8dc" filter="url(#spot-glow)" opacity="0.3"/>

    <!-- Wall lamp left (industrial style) -->
    <g transform="translate(170, 350)">
      <!-- arm -->
      <rect x="-40" y="-5" width="42" height="8" rx="3" fill="#1a1a1a"/>
      <rect x="-5" y="-18" width="8" height="22" rx="3" fill="#1a1a1a"/>
      <!-- shade -->
      <path d="M-8 -18 L8 -18 L12 -40 L-12 -40 Z" fill="#222222"/>
      <!-- bulb glow -->
      <ellipse cx="0" cy="-30" rx="10" ry="7" fill="#ffdd88" filter="url(#spot-glow-sm)" opacity="0.8"/>
      <circle cx="0" cy="-30" r="4" fill="#ffffc0"/>
      <!-- light cast on wall -->
      <ellipse cx="-20" cy="-15" rx="50" ry="35" fill="#ffcc66" filter="url(#spot-glow)" opacity="0.12"/>
    </g>

    <!-- Sofa (dark gray) center left floor -->
    <g transform="translate(160, 430)">
      <!-- sofa body -->
      <rect x="0" y="0" width="240" height="70" rx="8" fill="#3a3a3e"/>
      <!-- sofa back -->
      <rect x="0" y="-30" width="240" height="35" rx="6" fill="#333338"/>
      <!-- cushions -->
      <rect x="8" y="5" width="75" height="55" rx="5" fill="#404048"/>
      <rect x="90" y="5" width="62" height="55" rx="5" fill="#3c3c44"/>
      <rect x="160" y="5" width="72" height="55" rx="5" fill="#404048"/>
      <!-- throw blanket -->
      <path d="M168 10 Q200 15 225 5 Q215 25 195 30 Q175 35 168 10 Z" fill="#c8923a" opacity="0.85"/>
      <!-- cushion decorative -->
      <rect x="95" y="12" width="52" height="40" rx="4" fill="#2a2a30"/>
      <!-- sofa legs -->
      <rect x="8" y="68" width="12" height="16" rx="2" fill="#2a2a2a"/>
      <rect x="220" y="68" width="12" height="16" rx="2" fill="#2a2a2a"/>
    </g>

    <!-- Side table (small, round, natural wood) -->
    <g transform="translate(136, 460)">
      <ellipse cx="0" cy="0" rx="22" ry="20" fill="#9a7430"/>
      <rect x="-5" y="0" width="10" height="35" rx="3" fill="#8a6428"/>
      <!-- items on table -->
      <ellipse cx="0" cy="-4" rx="10" ry="8" fill="#aa8840"/>
      <!-- book/mug -->
      <rect x="-8" y="-10" width="16" height="8" rx="1" fill="#2a3020"/>
      <ellipse cx="5" cy="-12" rx="7" ry="5" fill="#7a4820"/>
    </g>
    <!-- stool -->
    <g transform="translate(420, 480)">
      <ellipse cx="0" cy="0" rx="25" ry="18" fill="#9a7020"/>
      <rect x="-4" y="0" width="8" height="30" rx="2" fill="#8a6018"/>
      <rect x="-22" y="28" width="44" height="5" rx="1" fill="#7a5818"/>
    </g>
    <!-- second stool -->
    <g transform="translate(380, 490)">
      <ellipse cx="0" cy="0" rx="20" ry="15" fill="#8a6418"/>
      <rect x="-3" y="0" width="6" height="24" rx="2" fill="#7a5818"/>
      <rect x="-18" y="22" width="36" height="5" rx="1" fill="#6a4a10"/>
    </g>

    <!-- Potted plant near window -->
    <g transform="translate(200, 330)">
      <rect x="-18" y="30" width="36" height="28" rx="3" fill="#2a3020"/>
      <ellipse cx="0" cy="32" rx="20" ry="8" fill="#222a1a"/>
      <!-- stems -->
      <path d="M0 30 Q-15 5 -20 -25" stroke="#3a5028" stroke-width="3" fill="none"/>
      <path d="M0 30 Q5 -5 10 -30" stroke="#3a5028" stroke-width="2.5" fill="none"/>
      <path d="M0 30 Q20 10 28 -15" stroke="#3a5028" stroke-width="2" fill="none"/>
      <!-- leaves -->
      <ellipse cx="-20" cy="-25" rx="18" ry="8" fill="#2a4020" transform="rotate(-30 -20 -25)"/>
      <ellipse cx="10" cy="-30" rx="16" ry="7" fill="#304828" transform="rotate(10 10 -30)"/>
      <ellipse cx="28" cy="-15" rx="14" ry="6" fill="#2a4020" transform="rotate(20 28 -15)"/>
    </g>

    <!-- Dark vignette on edges -->
    <defs>
      <radialGradient id="vig4" cx="50%" cy="50%" r="65%">
        <stop offset="0%" stop-color="#000" stop-opacity="0"/>
        <stop offset="100%" stop-color="#000" stop-opacity="0.5"/>
      </radialGradient>
    </defs>
    <rect width="900" height="600" fill="url(#vig4)"/>

    <!-- Slight golden warm overlay -->
    <rect width="900" height="600" fill="#c07010" opacity="0.04"/>
  </g>
</svg>
